<?xml version="1.0" encoding="UTF-8" standalone="no"?>
<!-- Generator: Adobe Illustrator 26.0.3, SVG Export Plug-In . SVG Version: 6.00 Build 0)  -->

<svg
   version="1.1"
   id="Layer_1"
   x="0px"
   y="0px"
   viewBox="0 0 29.000001 29.000001"
   xml:space="preserve"
   sodipodi:docname="Active Carousel Circle.svg"
   width="29"
   height="29"
   inkscape:version="1.2-dev (44c0d328, 2021-10-14)"
   xmlns:inkscape="http://www.inkscape.org/namespaces/inkscape"
   xmlns:sodipodi="http://sodipodi.sourceforge.net/DTD/sodipodi-0.dtd"
   xmlns:xlink="http://www.w3.org/1999/xlink"
   xmlns="http://www.w3.org/2000/svg"
   xmlns:svg="http://www.w3.org/2000/svg"><defs
   id="defs504" /><sodipodi:namedview
   id="namedview502"
   pagecolor="#ffffff"
   bordercolor="#000000"
   borderopacity="0.25"
   inkscape:pageshadow="2"
   inkscape:pageopacity="0.0"
   inkscape:pagecheckerboard="0"
   inkscape:blackoutopacity="0.0"
   showgrid="false"
   width="29px"
   inkscape:zoom="0.88358812"
   inkscape:cx="297.08412"
   inkscape:cy="298.21587"
   inkscape:window-width="1366"
   inkscape:window-height="705"
   inkscape:window-x="-8"
   inkscape:window-y="-8"
   inkscape:window-maximized="1"
   inkscape:current-layer="Layer_1" />
<style
   type="text/css"
   id="style465">
	
		.st0{clip-path:url(#SVGID_00000088812560171667650850000007482884032801815721_);fill:url(#SVGID_00000088120736431835833390000002346849916167952522_);}
	
		.st1{clip-path:url(#SVGID_00000074426005337535197160000013809762091700849580_);fill:url(#SVGID_00000043423279766747702650000005693353185427195020_);}
</style>
<g
   id="g482"
   transform="translate(-283,-282.70001)">
	<defs
   id="defs468">
		<path
   id="SVGID_1_"
   d="m 284,297.2 c 0,7.5 6,13.5 13.5,13.5 7.5,0 13.5,-6 13.5,-13.5 0,-7.5 -6,-13.5 -13.5,-13.5 -7.5,0 -13.5,6 -13.5,13.5" />
	</defs>
	<clipPath
   id="SVGID_00000009554174976324198460000008281053663192878219_">
		<use
   xlink:href="#SVGID_1_"
   style="overflow:visible"
   id="use470"
   x="0"
   y="0"
   width="100%"
   height="100%" />
	</clipPath>
	
		<linearGradient
   id="SVGID_00000008134435022064257420000000595796280057395337_"
   gradientUnits="userSpaceOnUse"
   x1="12.35"
   y1="607.94427"
   x2="13.35"
   y2="607.94427"
   gradientTransform="matrix(24.7981,0,0,-24.7981,-21.1972,15373.063)">
		<stop
   offset="0"
   style="stop-color:#CF6D36"
   id="stop473" />
		<stop
   offset="0.5"
   style="stop-color:#C6343E"
   id="stop475" />
		<stop
   offset="1"
   style="stop-color:#8A333C"
   id="stop477" />
	</linearGradient>
	
		<rect
   x="284"
   y="283.70001"
   style="fill:url(#SVGID_00000008134435022064257420000000595796280057395337_)"
   width="27"
   height="27"
   clip-path="url(#SVGID_00000009554174976324198460000008281053663192878219_)"
   id="rect480" />
</g>
<g
   id="g499"
   transform="translate(-283,-282.7)">
	<defs
   id="defs485">
		<rect
   id="SVGID_00000147215750565884622820000013485214726679458484_"
   x="282.5"
   y="282.20001"
   width="30"
   height="30" />
	</defs>
	<clipPath
   id="SVGID_00000131338683311987057650000013759730711666464701_">
		<use
   xlink:href="#SVGID_00000147215750565884622820000013485214726679458484_"
   style="overflow:visible"
   id="use487"
   x="0"
   y="0"
   width="100%"
   height="100%" />
	</clipPath>
	
		<linearGradient
   id="SVGID_00000021092569833018978110000008933641472736676736_"
   gradientUnits="userSpaceOnUse"
   x1="12.35"
   y1="607.94427"
   x2="13.35"
   y2="607.94427"
   gradientTransform="matrix(24.7981,0,0,-24.7981,-21.1971,15373.058)">
		<stop
   offset="0"
   style="stop-color:#CF6D36"
   id="stop490" />
		<stop
   offset="0.5"
   style="stop-color:#C6343E"
   id="stop492" />
		<stop
   offset="1"
   style="stop-color:#8A333C"
   id="stop494" />
	</linearGradient>
	
		<path
   style="fill:url(#SVGID_00000021092569833018978110000008933641472736676736_)"
   d="m 297.5,310.7 v -1 c 6.9,0 12.5,-5.6 12.5,-12.5 0,-6.9 -5.6,-12.5 -12.5,-12.5 -6.9,0 -12.5,5.6 -12.5,12.5 0,6.9 5.6,12.5 12.5,12.5 v 1 1 c -8,0 -14.5,-6.5 -14.5,-14.5 0,-8 6.5,-14.5 14.5,-14.5 8,0 14.5,6.5 14.5,14.5 0,8 -6.5,14.5 -14.5,14.5 z"
   clip-path="url(#SVGID_00000131338683311987057650000013759730711666464701_)"
   id="path497" />
</g>
</svg>
