<?xml version="1.0" encoding="utf-8"?>
<!-- Generator: Adobe Illustrator 26.0.3, SVG Export Plug-In . SVG Version: 6.00 Build 0)  -->
<svg version="1.1" id="Layer_1" xmlns="http://www.w3.org/2000/svg" xmlns:xlink="http://www.w3.org/1999/xlink" x="0px" y="0px"
	 viewBox="0 0 595.3 595.3" style="enable-background:new 0 0 595.3 595.3;" xml:space="preserve">
<style type="text/css">
	
		.st0{clip-path:url(#SVGID_00000088812560171667650850000007482884032801815721_);fill:url(#SVGID_00000088120736431835833390000002346849916167952522_);}
	
		.st1{clip-path:url(#SVGID_00000074426005337535197160000013809762091700849580_);fill:url(#SVGID_00000043423279766747702650000005693353185427195020_);}
</style>
<g>
	<defs>
		<path id="SVGID_1_" d="M284,297.2c0,7.5,6,13.5,13.5,13.5c7.5,0,13.5-6,13.5-13.5c0-7.5-6-13.5-13.5-13.5
			C290,283.7,284,289.7,284,297.2"/>
	</defs>
	<clipPath id="SVGID_00000009554174976324198460000008281053663192878219_">
		<use xlink:href="#SVGID_1_"  style="overflow:visible;"/>
	</clipPath>
	
		<linearGradient id="SVGID_00000008134435022064257420000000595796280057395337_" gradientUnits="userSpaceOnUse" x1="12.35" y1="607.9443" x2="13.35" y2="607.9443" gradientTransform="matrix(24.7981 0 0 -24.7981 -21.1972 15373.0625)">
		<stop  offset="0" style="stop-color:#CF6D36"/>
		<stop  offset="0.5" style="stop-color:#C6343E"/>
		<stop  offset="1" style="stop-color:#8A333C"/>
	</linearGradient>
	
		<rect x="284" y="283.7" style="clip-path:url(#SVGID_00000009554174976324198460000008281053663192878219_);fill:url(#SVGID_00000008134435022064257420000000595796280057395337_);" width="27" height="27"/>
</g>
<g>
	<defs>
		<rect id="SVGID_00000147215750565884622820000013485214726679458484_" x="282.5" y="282.2" width="30" height="30"/>
	</defs>
	<clipPath id="SVGID_00000131338683311987057650000013759730711666464701_">
		<use xlink:href="#SVGID_00000147215750565884622820000013485214726679458484_"  style="overflow:visible;"/>
	</clipPath>
	
		<linearGradient id="SVGID_00000021092569833018978110000008933641472736676736_" gradientUnits="userSpaceOnUse" x1="12.35" y1="607.9443" x2="13.35" y2="607.9443" gradientTransform="matrix(24.7981 0 0 -24.7981 -21.1971 15373.0576)">
		<stop  offset="0" style="stop-color:#CF6D36"/>
		<stop  offset="0.5" style="stop-color:#C6343E"/>
		<stop  offset="1" style="stop-color:#8A333C"/>
	</linearGradient>
	
		<path style="clip-path:url(#SVGID_00000131338683311987057650000013759730711666464701_);fill:url(#SVGID_00000021092569833018978110000008933641472736676736_);" d="
		M297.5,310.7v-1c6.9,0,12.5-5.6,12.5-12.5c0-6.9-5.6-12.5-12.5-12.5c-6.9,0-12.5,5.6-12.5,12.5c0,6.9,5.6,12.5,12.5,12.5V310.7v1
		c-8,0-14.5-6.5-14.5-14.5c0-8,6.5-14.5,14.5-14.5c8,0,14.5,6.5,14.5,14.5c0,8-6.5,14.5-14.5,14.5V310.7z"/>
</g>
</svg>
