<?xml version="1.0" encoding="utf-8"?>
<!-- Generator: Adobe Illustrator 26.0.3, SVG Export Plug-In . SVG Version: 6.00 Build 0)  -->
<svg version="1.1" id="Layer_1" xmlns="http://www.w3.org/2000/svg" xmlns:xlink="http://www.w3.org/1999/xlink" x="0px" y="0px"
	 viewBox="0 0 595.3 595.3" style="enable-background:new 0 0 595.3 595.3;" xml:space="preserve">
<style type="text/css">
	
		.st0{clip-path:url(#SVGID_00000055683667365202414260000009649706017572890282_);fill:url(#SVGID_00000181799114326816175980000012305011027297156999_);}
</style>
<g>
	<defs>
		<rect id="SVGID_1_" x="282.5" y="282.2" width="30" height="30"/>
	</defs>
	<clipPath id="SVGID_00000088118086154650554020000012598572823181670280_">
		<use xlink:href="#SVGID_1_"  style="overflow:visible;"/>
	</clipPath>
	
		<linearGradient id="SVGID_00000065763359417826683510000009536707854297408906_" gradientUnits="userSpaceOnUse" x1="12.35" y1="607.9443" x2="13.35" y2="607.9443" gradientTransform="matrix(24.7981 0 0 -24.7981 -21.1971 15373.0576)">
		<stop  offset="0" style="stop-color:#CF6D36"/>
		<stop  offset="0.5" style="stop-color:#C6343E"/>
		<stop  offset="1" style="stop-color:#8A333C"/>
	</linearGradient>
	
		<path style="clip-path:url(#SVGID_00000088118086154650554020000012598572823181670280_);fill:url(#SVGID_00000065763359417826683510000009536707854297408906_);" d="
		M297.5,310.7v-1c6.9,0,12.5-5.6,12.5-12.5c0-6.9-5.6-12.5-12.5-12.5c-6.9,0-12.5,5.6-12.5,12.5c0,6.9,5.6,12.5,12.5,12.5V310.7v1
		c-8,0-14.5-6.5-14.5-14.5c0-8,6.5-14.5,14.5-14.5c8,0,14.5,6.5,14.5,14.5c0,8-6.5,14.5-14.5,14.5V310.7z"/>
</g>
</svg>
