<?xml version="1.0" encoding="UTF-8" standalone="no"?>
<!-- Generator: Adobe Illustrator 26.0.3, SVG Export Plug-In . SVG Version: 6.00 Build 0)  -->

<svg
   version="1.1"
   id="Layer_1"
   x="0px"
   y="0px"
   viewBox="0 0 29.000001 29.000001"
   xml:space="preserve"
   sodipodi:docname="Inactive Carousel Circle.svg"
   width="29"
   height="29"
   inkscape:version="1.2-dev (44c0d328, 2021-10-14)"
   xmlns:inkscape="http://www.inkscape.org/namespaces/inkscape"
   xmlns:sodipodi="http://sodipodi.sourceforge.net/DTD/sodipodi-0.dtd"
   xmlns:xlink="http://www.w3.org/1999/xlink"
   xmlns="http://www.w3.org/2000/svg"
   xmlns:svg="http://www.w3.org/2000/svg"><defs
   id="defs862" /><sodipodi:namedview
   id="namedview860"
   pagecolor="#ffffff"
   bordercolor="#000000"
   borderopacity="0.25"
   inkscape:pageshadow="2"
   inkscape:pageopacity="0.0"
   inkscape:pagecheckerboard="0"
   inkscape:blackoutopacity="0.0"
   showgrid="false"
   width="29px"
   inkscape:zoom="0.88358812"
   inkscape:cx="297.08412"
   inkscape:cy="298.21587"
   inkscape:window-width="1366"
   inkscape:window-height="705"
   inkscape:window-x="-8"
   inkscape:window-y="-8"
   inkscape:window-maximized="1"
   inkscape:current-layer="Layer_1" />
<style
   type="text/css"
   id="style840">
	
		.st0{clip-path:url(#SVGID_00000055683667365202414260000009649706017572890282_);fill:url(#SVGID_00000181799114326816175980000012305011027297156999_);}
</style>
<g
   id="g857"
   transform="translate(-283,-282.7)">
	<defs
   id="defs843">
		<rect
   id="SVGID_1_"
   x="282.5"
   y="282.20001"
   width="30"
   height="30" />
	</defs>
	<clipPath
   id="SVGID_00000088118086154650554020000012598572823181670280_">
		<use
   xlink:href="#SVGID_1_"
   style="overflow:visible"
   id="use845"
   x="0"
   y="0"
   width="100%"
   height="100%" />
	</clipPath>
	
		<linearGradient
   id="SVGID_00000065763359417826683510000009536707854297408906_"
   gradientUnits="userSpaceOnUse"
   x1="12.35"
   y1="607.94427"
   x2="13.35"
   y2="607.94427"
   gradientTransform="matrix(24.7981,0,0,-24.7981,-21.1971,15373.058)">
		<stop
   offset="0"
   style="stop-color:#CF6D36"
   id="stop848" />
		<stop
   offset="0.5"
   style="stop-color:#C6343E"
   id="stop850" />
		<stop
   offset="1"
   style="stop-color:#8A333C"
   id="stop852" />
	</linearGradient>
	
		<path
   style="fill:url(#SVGID_00000065763359417826683510000009536707854297408906_)"
   d="m 297.5,310.7 v -1 c 6.9,0 12.5,-5.6 12.5,-12.5 0,-6.9 -5.6,-12.5 -12.5,-12.5 -6.9,0 -12.5,5.6 -12.5,12.5 0,6.9 5.6,12.5 12.5,12.5 v 1 1 c -8,0 -14.5,-6.5 -14.5,-14.5 0,-8 6.5,-14.5 14.5,-14.5 8,0 14.5,6.5 14.5,14.5 0,8 -6.5,14.5 -14.5,14.5 z"
   clip-path="url(#SVGID_00000088118086154650554020000012598572823181670280_)"
   id="path855" />
</g>
</svg>
