<?xml version="1.0" encoding="UTF-8" standalone="no"?>
<!-- Generator: Adobe Illustrator 26.0.3, SVG Export Plug-In . SVG Version: 6.00 Build 0)  -->

<svg
   version="1.1"
   id="Layer_1"
   x="0px"
   y="0px"
   viewBox="0 0 225.44001 180.4"
   xml:space="preserve"
   sodipodi:docname="Twitter Icon.svg"
   width="225.44"
   height="180.39999"
   inkscape:version="1.2-dev (44c0d328, 2021-10-14)"
   xmlns:inkscape="http://www.inkscape.org/namespaces/inkscape"
   xmlns:sodipodi="http://sodipodi.sourceforge.net/DTD/sodipodi-0.dtd"
   xmlns:xlink="http://www.w3.org/1999/xlink"
   xmlns="http://www.w3.org/2000/svg"
   xmlns:svg="http://www.w3.org/2000/svg"><defs
   id="defs379" /><sodipodi:namedview
   id="namedview377"
   pagecolor="#ffffff"
   bordercolor="#000000"
   borderopacity="0.25"
   inkscape:pageshadow="2"
   inkscape:pageopacity="0.0"
   inkscape:pagecheckerboard="0"
   inkscape:blackoutopacity="0.0"
   showgrid="false"
   width="225.44px"
   inkscape:zoom="0.88358812"
   inkscape:cx="108.08203"
   inkscape:cy="297.64999"
   inkscape:window-width="1350"
   inkscape:window-height="728"
   inkscape:window-x="10"
   inkscape:window-y="10"
   inkscape:window-maximized="0"
   inkscape:current-layer="Layer_1" />
<style
   type="text/css"
   id="style357">
	
		.st0{clip-path:url(#SVGID_00000108281195967888653330000004074284574294621314_);fill:url(#SVGID_00000069376810727927550810000014915164521002823094_);}
</style>
<g
   id="g374"
   transform="matrix(2.4085449,0,0,2.4085449,-609.1209,-555.41047)">
	<defs
   id="defs360">
		<path
   id="SVGID_1_"
   d="m 317.7,230.6 c -10.6,0 -19.2,8.5 -19.2,18.9 0,1.5 0.2,2.9 0.5,4.3 -16,-0.8 -30.4,-8.7 -39.9,-20.1 -1.6,2.8 -2.3,6.4 -2.3,9.9 0,6.6 3.4,12.3 8.6,15.7 -3.2,-0.1 -6.1,-1 -8.7,-2.4 v 0.2 c 0,9.2 6.6,16.8 15.4,18.5 -1.6,0.4 -3.3,0.7 -5.1,0.7 -1.2,0 -2.4,-0.1 -3.6,-0.3 2.4,7.5 9.2,13.7 17.6,13.9 -8.2,9.3 -26.6,6.4 -28.1,6.2 8.5,5.4 18.6,9.4 29.4,9.4 35.3,0 54.7,-28.8 54.7,-53.8 0,-0.8 0,-1.6 -0.1,-2.4 3.7,-2.7 7,-5.5 9.6,-9.3 -3.4,1.5 -7.1,2 -11,2.5 3.4,-2.6 5.2,-3.5 7.9,-8.7 -3.7,2.2 -7.3,2 -11.7,2.9 -3.5,-3.8 -8.5,-6.1 -14,-6.1 z" />
	</defs>
	<clipPath
   id="SVGID_00000083056737380337088460000009288120403475648148_">
		<use
   xlink:href="#SVGID_1_"
   style="overflow:visible"
   id="use362"
   x="0"
   y="0"
   width="100%"
   height="100%" />
	</clipPath>
	
		<linearGradient
   id="SVGID_00000061445032827085034090000006137312246251535799_"
   gradientUnits="userSpaceOnUse"
   x1="2.7005999"
   y1="598.77008"
   x2="3.7005999"
   y2="598.77008"
   gradientTransform="matrix(93.6306,0,0,-93.6306,0,56331.258)">
		<stop
   offset="0"
   style="stop-color:#D26C19"
   id="stop365" />
		<stop
   offset="0.5"
   style="stop-color:#C20016"
   id="stop367" />
		<stop
   offset="1"
   style="stop-color:#8F152E"
   id="stop369" />
	</linearGradient>
	
		<rect
   x="252.89999"
   y="230.60001"
   style="fill:url(#SVGID_00000061445032827085034090000006137312246251535799_)"
   width="93.599998"
   height="74.900002"
   clip-path="url(#SVGID_00000083056737380337088460000009288120403475648148_)"
   id="rect372" />
</g>
</svg>
