<?xml version="1.0" encoding="utf-8"?>
<!-- Generator: Adobe Illustrator 26.0.3, SVG Export Plug-In . SVG Version: 6.00 Build 0)  -->
<svg version="1.1" id="Layer_1" xmlns="http://www.w3.org/2000/svg" xmlns:xlink="http://www.w3.org/1999/xlink" x="0px" y="0px"
	 viewBox="0 0 595.3 595.3" style="enable-background:new 0 0 595.3 595.3;" xml:space="preserve">
<style type="text/css">
	
		.st0{clip-path:url(#SVGID_00000108281195967888653330000004074284574294621314_);fill:url(#SVGID_00000069376810727927550810000014915164521002823094_);}
</style>
<g>
	<defs>
		<path id="SVGID_1_" d="M317.7,230.6c-10.6,0-19.2,8.5-19.2,18.9c0,1.5,0.2,2.9,0.5,4.3c-16-0.8-30.4-8.7-39.9-20.1
			c-1.6,2.8-2.3,6.4-2.3,9.9c0,6.6,3.4,12.3,8.6,15.7c-3.2-0.1-6.1-1-8.7-2.4v0.2c0,9.2,6.6,16.8,15.4,18.5
			c-1.6,0.4-3.3,0.7-5.1,0.7c-1.2,0-2.4-0.1-3.6-0.3c2.4,7.5,9.2,13.7,17.6,13.9c-8.2,9.3-26.6,6.4-28.1,6.2
			c8.5,5.4,18.6,9.4,29.4,9.4c35.3,0,54.7-28.8,54.7-53.8c0-0.8,0-1.6-0.1-2.4c3.7-2.7,7-5.5,9.6-9.3c-3.4,1.5-7.1,2-11,2.5
			c3.4-2.6,5.2-3.5,7.9-8.7c-3.7,2.2-7.3,2-11.7,2.9C328.2,232.9,323.2,230.6,317.7,230.6z"/>
	</defs>
	<clipPath id="SVGID_00000083056737380337088460000009288120403475648148_">
		<use xlink:href="#SVGID_1_"  style="overflow:visible;"/>
	</clipPath>
	
		<linearGradient id="SVGID_00000061445032827085034090000006137312246251535799_" gradientUnits="userSpaceOnUse" x1="2.7006" y1="598.7701" x2="3.7006" y2="598.7701" gradientTransform="matrix(93.6306 0 0 -93.6306 0 56331.2578)">
		<stop  offset="0" style="stop-color:#D26C19"/>
		<stop  offset="0.5" style="stop-color:#C20016"/>
		<stop  offset="1" style="stop-color:#8F152E"/>
	</linearGradient>
	
		<rect x="252.9" y="230.6" style="clip-path:url(#SVGID_00000083056737380337088460000009288120403475648148_);fill:url(#SVGID_00000061445032827085034090000006137312246251535799_);" width="93.6" height="74.9"/>
</g>
</svg>
