<?xml version="1.0" encoding="UTF-8"?>
<!-- Generator: Adobe Illustrator 26.0.3, SVG Export Plug-In . SVG Version: 6.00 Build 0)  -->
<svg width="225.44" height="180.4" version="1.1" viewBox="0 0 225.44 180.4" xml:space="preserve" xmlns="http://www.w3.org/2000/svg" xmlns:xlink="http://www.w3.org/1999/xlink">
<style type="text/css">
	
		.st0{clip-path:url(#SVGID_00000108281195967888653330000004074284574294621314_);fill:url(#SVGID_00000069376810727927550810000014915164521002823094_);}
</style>
<g transform="matrix(2.4085 0 0 2.4085 -609.12 -555.41)">
	<defs>
		<path id="SVGID_1_" d="m317.7 230.6c-10.6 0-19.2 8.5-19.2 18.9 0 1.5 0.2 2.9 0.5 4.3-16-0.8-30.4-8.7-39.9-20.1-1.6 2.8-2.3 6.4-2.3 9.9 0 6.6 3.4 12.3 8.6 15.7-3.2-0.1-6.1-1-8.7-2.4v0.2c0 9.2 6.6 16.8 15.4 18.5-1.6 0.4-3.3 0.7-5.1 0.7-1.2 0-2.4-0.1-3.6-0.3 2.4 7.5 9.2 13.7 17.6 13.9-8.2 9.3-26.6 6.4-28.1 6.2 8.5 5.4 18.6 9.4 29.4 9.4 35.3 0 54.7-28.8 54.7-53.8 0-0.8 0-1.6-0.1-2.4 3.7-2.7 7-5.5 9.6-9.3-3.4 1.5-7.1 2-11 2.5 3.4-2.6 5.2-3.5 7.9-8.7-3.7 2.2-7.3 2-11.7 2.9-3.5-3.8-8.5-6.1-14-6.1z"/>
	</defs>
	<clipPath id="SVGID_00000083056737380337088460000009288120403475648148_">
		<use width="100%" height="100%" xlink:href="#SVGID_1_"/>
	</clipPath>
	
		<linearGradient id="SVGID_00000061445032827085034090000006137312246251535799_" x1="2.7006" x2="3.7006" y1="598.77" y2="598.77" gradientTransform="matrix(93.631 0 0 -93.631 0 56331)" gradientUnits="userSpaceOnUse">
		<stop stop-color="#D26C19" offset="0"/>
		<stop stop-color="#C20016" offset=".5"/>
		<stop stop-color="#8F152E" offset="1"/>
	</linearGradient>
	
		<rect x="252.9" y="230.6" width="93.6" height="74.9" clip-path="url(#SVGID_00000083056737380337088460000009288120403475648148_)" fill="url(#SVGID_00000061445032827085034090000006137312246251535799_)"/>
</g>
</svg>
