<?xml version="1.0" encoding="utf-8"?>
<!-- Generator: Adobe Illustrator 26.0.3, SVG Export Plug-In . SVG Version: 6.00 Build 0)  -->
<svg version="1.1" id="Layer_1" xmlns="http://www.w3.org/2000/svg" xmlns:xlink="http://www.w3.org/1999/xlink" x="0px" y="0px"
	 viewBox="0 0 595.3 595.3" style="enable-background:new 0 0 595.3 595.3;" xml:space="preserve">
<style type="text/css">
	.st0{fill:url(#SVGID_1_);}
</style>
<linearGradient id="SVGID_1_" gradientUnits="userSpaceOnUse" x1="173.84" y1="300.7556" x2="438.06" y2="300.7556">
	<stop  offset="0" style="stop-color:#D26C19"/>
	<stop  offset="0.5" style="stop-color:#C20016"/>
	<stop  offset="1" style="stop-color:#8F152E"/>
</linearGradient>
<path class="st0" d="M382.7,206.3H229.2c-30.6,0-55.4,24.8-55.4,55.4v78.1c0,30.6,24.8,55.4,55.4,55.4h153.4
	c30.6,0,55.4-24.8,55.4-55.4v-78.1C438.1,231.1,413.3,206.3,382.7,206.3z M345.4,305.3l-70.8,33.8c-2.2,1-4.7-0.5-4.7-2.9v-70
	c0-2.4,2.6-4,4.8-2.9l70.8,36.1C347.9,300.6,347.8,304.1,345.4,305.3z"/>
</svg>
